<svg width="190" height="25" viewBox="0 0 190 25" fill="none" xmlns="http://www.w3.org/2000/svg">
<g clip-path="url(#clip0_48102_1202)">
<path d="M19.729 17.9888L25 23.2586L23.2586 25L17.9888 19.729C16.028 21.3009 13.5892 22.1558 11.0761 22.1522C4.9621 22.1522 0 17.1901 0 11.0761C0 4.9621 4.9621 0 11.0761 0C17.1901 0 22.1522 4.9621 22.1522 11.0761C22.1558 13.5892 21.3009 16.028 19.729 17.9888ZM17.2603 17.0757C18.8221 15.4695 19.6944 13.3165 19.6909 11.0761C19.6909 6.31584 15.8351 2.46136 11.0761 2.46136C6.31584 2.46136 2.46136 6.31584 2.46136 11.0761C2.46136 15.8351 6.31584 19.6909 11.0761 19.6909C13.3165 19.6944 15.4695 18.8221 17.0757 17.2603L17.2603 17.0757Z" fill="white"/>
</g>
<g clip-path="url(#clip1_48102_1202)">
<path d="M57.5 25C57.5 22.4741 58.5034 20.0517 60.2895 18.2656C62.0755 16.4796 64.4979 15.4762 67.0238 15.4762C69.5497 15.4762 71.9721 16.4796 73.7582 18.2656C75.5442 20.0517 76.5476 22.4741 76.5476 25H74.1667C74.1667 23.1056 73.4141 21.2888 72.0746 19.9492C70.735 18.6097 68.9182 17.8571 67.0238 17.8571C65.1294 17.8571 63.3126 18.6097 61.973 19.9492C60.6335 21.2888 59.881 23.1056 59.881 25H57.5ZM67.0238 14.2857C63.0774 14.2857 59.881 11.0893 59.881 7.14286C59.881 3.19643 63.0774 0 67.0238 0C70.9702 0 74.1667 3.19643 74.1667 7.14286C74.1667 11.0893 70.9702 14.2857 67.0238 14.2857ZM67.0238 11.9048C69.6548 11.9048 71.7857 9.77381 71.7857 7.14286C71.7857 4.5119 69.6548 2.38095 67.0238 2.38095C64.3929 2.38095 62.2619 4.5119 62.2619 7.14286C62.2619 9.77381 64.3929 11.9048 67.0238 11.9048Z" fill="white"/>
</g>
<g clip-path="url(#clip2_48102_1202)">
<path d="M122.501 3.16119C125.437 0.524988 129.975 0.612487 132.803 3.44618C135.631 6.28113 135.728 10.796 133.098 13.741L122.499 24.3558L111.901 13.741C109.271 10.796 109.37 6.27363 112.196 3.44618C115.027 0.616237 119.556 0.521238 122.501 3.16119ZM131.033 5.2124C129.158 3.33494 126.133 3.25869 124.171 5.02115L122.502 6.51863L120.832 5.0224C118.864 3.25744 115.845 3.33494 113.965 5.2149C112.102 7.07737 112.009 10.0586 113.725 12.0285L122.5 20.8171L131.275 12.0298C132.992 10.0586 132.898 7.08112 131.033 5.2124Z" fill="white"/>
</g>
<g clip-path="url(#clip3_48102_1202)">
<path d="M168.817 5.48063L165 1.66525L166.665 0L170.481 3.81655H188.418C188.602 3.81654 188.783 3.85941 188.947 3.94173C189.11 4.02406 189.253 4.14356 189.362 4.2907C189.472 4.43785 189.546 4.60856 189.577 4.78921C189.609 4.96986 189.598 5.15545 189.546 5.33117L186.721 14.746C186.649 14.9886 186.5 15.2012 186.297 15.3524C186.093 15.5035 185.847 15.5852 185.594 15.5851H171.17V17.9389H184.116V20.2926H169.993C169.681 20.2926 169.382 20.1686 169.161 19.9479C168.941 19.7272 168.817 19.4278 168.817 19.1157V5.48063ZM171.17 6.17027V13.2314H184.718L186.837 6.17027H171.17ZM170.582 25C170.114 25 169.665 24.814 169.334 24.483C169.003 24.1519 168.817 23.7029 168.817 23.2347C168.817 22.7665 169.003 22.3175 169.334 21.9865C169.665 21.6554 170.114 21.4694 170.582 21.4694C171.05 21.4694 171.499 21.6554 171.83 21.9865C172.161 22.3175 172.347 22.7665 172.347 23.2347C172.347 23.7029 172.161 24.1519 171.83 24.483C171.499 24.814 171.05 25 170.582 25ZM184.704 25C184.236 25 183.787 24.814 183.456 24.483C183.125 24.1519 182.939 23.7029 182.939 23.2347C182.939 22.7665 183.125 22.3175 183.456 21.9865C183.787 21.6554 184.236 21.4694 184.704 21.4694C185.172 21.4694 185.621 21.6554 185.952 21.9865C186.283 22.3175 186.469 22.7665 186.469 23.2347C186.469 23.7029 186.283 24.1519 185.952 24.483C185.621 24.814 185.172 25 184.704 25Z" fill="white"/>
</g>
<defs>
<clipPath id="clip0_48102_1202">
<rect width="25" height="25" fill="white"/>
</clipPath>
<clipPath id="clip1_48102_1202">
<rect width="25" height="25" fill="white" transform="translate(55)"/>
</clipPath>
<clipPath id="clip2_48102_1202">
<rect width="25" height="25" fill="white" transform="translate(110)"/>
</clipPath>
<clipPath id="clip3_48102_1202">
<rect width="25" height="25" fill="white" transform="translate(165)"/>
</clipPath>
</defs>
</svg>
